# xmcd
#
# Track frame offsets: 
#        150
#        13608
#        25648
#        38078
#        53422
#        65670
#        78315
#        91025
#        106413
#        120363
#        135067
#        149440
#        161496
#        176076
#        189671
#        203737
#        217945
#        231149
#        242497
#        257284
#        269615
#        284039
#        298611
#        313620
#        328200
#
# Disc length: 4555 seconds
#
# Revision: 2
# Processed by: cddbd v1.5.2PL0 Copyright (c) Steve Scherf et al.
# Submitted via: ExactAudioCopyFreeDBPlugin 1.0
#
DISCID=5811c919
DTITLE=Various Artist - When the Levee Breaks:  Mississippi Blues Rar
DTITLE=e Cuts, 1926-1941 [JSP Records]
DYEAR=2007
DGENRE=Blues
TTITLE0=Son House - Clarksdale Moan
TTITLE1=Bogus Ben Covington - Adam and Eve in the Garden
TTITLE2=George Torey - Lonesome Man Blues
TTITLE3=Walter Rhodes - Leaving Home Blues
TTITLE4=Sam Collins - Loving Lady Blues
TTITLE5=William Harris - Early Mornin' Blues
TTITLE6=Buddy Boy Hawkins - Number Three Blues
TTITLE7=King Solomon Hill - Tell Me Baby
TTITLE8=Robert Lockwood - Little Boy Blue
TTITLE9=Garfield Akers - Cottonfield Blues, Part 2
TTITLE10=Willie "61" Blackwell - Chalk My Toy
TTITLE11=Mississippi Jook Band - Barbeque Bust
TTITLE12=Arthur Petties - Two Time Blues
TTITLE13=Joe Stone - Back Door Blues
TTITLE14=Freddie Spruell - Way Back Down Home
TTITLE15=Geeshie Wiley - Skinny Leg Blues
TTITLE16=Joe McCoy - Meat Cutter Blues
TTITLE17=Mississippi Moaner - Mississippi Moan
TTITLE18=Blind Willie Reynolds - Married Man Blues
TTITLE19=Sam Butler - Jefferson County Blues
TTITLE20=Willie "61" Blackwell - Rampaw Street Blues
TTITLE21=Mississippi Bracey - I'll Overcome Someday
TTITLE22=Arthur Petties - Good Boy Blues
TTITLE23=Jelly Jaw Short - Grand Daddy Blues
TTITLE24=Freddie Spruell - Let's Go Riding
EXTD=
EXTT0=
EXTT1=
EXTT2=
EXTT3=
EXTT4=
EXTT5=
EXTT6=
EXTT7=
EXTT8=
EXTT9=
EXTT10=
EXTT11=
EXTT12=
EXTT13=
EXTT14=
EXTT15=
EXTT16=
EXTT17=
EXTT18=
EXTT19=
EXTT20=
EXTT21=
EXTT22=
EXTT23=
EXTT24=
PLAYORDER=
